<svg width="66" height="46" viewBox="0 0 66 46" fill="none" xmlns="http://www.w3.org/2000/svg">
<g filter="url(#filter0_d_2332_69502)">
<mask id="path-1-outside-1_2332_69502" maskUnits="userSpaceOnUse" x="29.8398" y="-0.605469" width="32" height="39" fill="black">
<rect fill="white" x="29.8398" y="-0.605469" width="32" height="39"/>
<path fill-rule="evenodd" clip-rule="evenodd" d="M36.1148 5.39938C35.9797 5.54133 35.8472 5.6869 35.7175 5.83608C35.2389 6.3865 34.8026 6.98045 34.4088 7.61792L36.1148 5.39938ZM31.8398 20.8692C31.9056 23.0674 32.2216 25.0642 32.7878 26.8595C33.4441 28.8751 34.3816 30.6017 35.6003 32.0392C36.8347 33.4611 38.3347 34.5548 40.1003 35.3205C41.8659 36.0861 43.8659 36.4689 46.1003 36.4689C48.8972 36.4689 51.3113 35.9689 53.3425 34.9689C55.3738 33.9533 56.9597 32.5548 58.1003 30.7736C59.2566 28.9767 59.8972 26.9064 60.0222 24.5626H52.4284C52.3503 25.8908 52.0691 26.9923 51.5847 27.8673C51.1003 28.7423 50.405 29.3986 49.4988 29.8361C48.5925 30.258 47.4597 30.4689 46.1003 30.4689C44.9128 30.4689 43.905 30.258 43.0769 29.8361C42.2488 29.4142 41.5691 28.7736 41.0378 27.9142C40.5222 27.0548 40.1472 25.9689 39.9128 24.6564C39.6784 23.3439 39.5613 21.7892 39.5613 19.9923V17.8595C39.5613 16.047 39.6941 14.4845 39.9597 13.172C40.2253 11.8439 40.6238 10.7501 41.155 9.89077C41.7019 9.0314 42.3816 8.39858 43.1941 7.99233C44.0222 7.58608 44.9831 7.38296 46.0769 7.38296C47.5769 7.38296 48.78 7.61733 49.6863 8.08608C50.5925 8.55483 51.2644 9.25015 51.7019 10.172C52.1394 11.0783 52.3894 12.1955 52.4519 13.5236H60.0691C59.8503 11.1798 59.1863 9.0939 58.0769 7.26577C56.9831 5.43765 55.4363 4.00015 53.4363 2.95327C51.608 1.99627 49.401 1.47669 46.8153 1.39453L31.8398 20.8692Z"/>
</mask>
<path fill-rule="evenodd" clip-rule="evenodd" d="M36.1148 5.39938C35.9797 5.54133 35.8472 5.6869 35.7175 5.83608C35.2389 6.3865 34.8026 6.98045 34.4088 7.61792L36.1148 5.39938ZM31.8398 20.8692C31.9056 23.0674 32.2216 25.0642 32.7878 26.8595C33.4441 28.8751 34.3816 30.6017 35.6003 32.0392C36.8347 33.4611 38.3347 34.5548 40.1003 35.3205C41.8659 36.0861 43.8659 36.4689 46.1003 36.4689C48.8972 36.4689 51.3113 35.9689 53.3425 34.9689C55.3738 33.9533 56.9597 32.5548 58.1003 30.7736C59.2566 28.9767 59.8972 26.9064 60.0222 24.5626H52.4284C52.3503 25.8908 52.0691 26.9923 51.5847 27.8673C51.1003 28.7423 50.405 29.3986 49.4988 29.8361C48.5925 30.258 47.4597 30.4689 46.1003 30.4689C44.9128 30.4689 43.905 30.258 43.0769 29.8361C42.2488 29.4142 41.5691 28.7736 41.0378 27.9142C40.5222 27.0548 40.1472 25.9689 39.9128 24.6564C39.6784 23.3439 39.5613 21.7892 39.5613 19.9923V17.8595C39.5613 16.047 39.6941 14.4845 39.9597 13.172C40.2253 11.8439 40.6238 10.7501 41.155 9.89077C41.7019 9.0314 42.3816 8.39858 43.1941 7.99233C44.0222 7.58608 44.9831 7.38296 46.0769 7.38296C47.5769 7.38296 48.78 7.61733 49.6863 8.08608C50.5925 8.55483 51.2644 9.25015 51.7019 10.172C52.1394 11.0783 52.3894 12.1955 52.4519 13.5236H60.0691C59.8503 11.1798 59.1863 9.0939 58.0769 7.26577C56.9831 5.43765 55.4363 4.00015 53.4363 2.95327C51.608 1.99627 49.401 1.47669 46.8153 1.39453L31.8398 20.8692Z" fill="white"/>
<path d="M35.7175 5.83608L36.4721 6.49226L36.4721 6.49226L35.7175 5.83608ZM36.1148 5.39938L36.9075 6.00896L35.3904 4.70993L36.1148 5.39938ZM34.4088 7.61792L33.5581 7.0923L35.2015 8.22751L34.4088 7.61792ZM32.7878 26.8595L31.8341 27.1603L31.837 27.1691L32.7878 26.8595ZM31.8398 20.8692L31.0471 20.2596L30.8296 20.5425L30.8403 20.8991L31.8398 20.8692ZM35.6003 32.0392L34.8375 32.6859L34.8452 32.6948L35.6003 32.0392ZM53.3425 34.9689L53.7842 35.8661L53.7897 35.8633L53.3425 34.9689ZM58.1003 30.7736L57.2594 30.2325L57.2582 30.2343L58.1003 30.7736ZM60.0222 24.5626L61.0208 24.6159L61.077 23.5626H60.0222V24.5626ZM52.4284 24.5626V23.5626H51.4855L51.4302 24.5039L52.4284 24.5626ZM49.4988 29.8361L49.9208 30.7428L49.9335 30.7366L49.4988 29.8361ZM41.0378 27.9142L40.1803 28.4287L40.1872 28.44L41.0378 27.9142ZM39.9597 13.172L40.9398 13.3704L40.9403 13.3681L39.9597 13.172ZM41.155 9.89077L40.3113 9.35385L40.3044 9.36495L41.155 9.89077ZM43.1941 7.99233L42.7536 7.09452L42.7469 7.09791L43.1941 7.99233ZM51.7019 10.172L50.7984 10.6008L50.8013 10.6068L51.7019 10.172ZM52.4519 13.5236L51.453 13.5706L51.4978 14.5236H52.4519V13.5236ZM60.0691 13.5236V14.5236H61.1668L61.0647 13.4307L60.0691 13.5236ZM58.0769 7.26577L57.2187 7.7792L57.222 7.78456L58.0769 7.26577ZM53.4363 2.95327L53.9 2.0673L53.9 2.0673L53.4363 2.95327ZM46.8153 1.39453L46.8471 0.395036L46.335 0.378763L46.0226 0.784949L46.8153 1.39453ZM36.4721 6.49226C36.5921 6.35429 36.7144 6.21982 36.8391 6.08882L35.3904 4.70993C35.2449 4.86284 35.1024 5.0195 34.9629 5.1799L36.4721 6.49226ZM35.2595 8.14355C35.6257 7.55087 36.03 7.00074 36.4721 6.49226L34.9629 5.1799C34.4478 5.77227 33.9796 6.41004 33.5581 7.0923L35.2595 8.14355ZM35.2015 8.22751L36.9075 6.00896L35.322 4.78979L33.616 7.00834L35.2015 8.22751ZM33.7415 26.5587C33.2071 24.8644 32.9029 22.9606 32.8394 20.8393L30.8403 20.8991C30.9083 23.1742 31.236 25.2639 31.8341 27.1603L33.7415 26.5587ZM36.3631 31.3925C35.2382 30.0657 34.3597 28.4574 33.7387 26.5499L31.837 27.1691C32.5284 29.2929 33.525 31.1377 34.8376 32.6859L36.3631 31.3925ZM40.4982 34.403C38.8666 33.6955 37.4896 32.6901 36.3555 31.3836L34.8452 32.6948C36.1798 34.2321 37.8028 35.4142 39.7025 36.2379L40.4982 34.403ZM46.1003 35.4689C43.981 35.4689 42.1196 35.1061 40.4982 34.403L39.7025 36.2379C41.6123 37.0661 43.7509 37.4689 46.1003 37.4689V35.4689ZM52.9008 34.0717C51.0355 34.99 48.7793 35.4689 46.1003 35.4689V37.4689C49.015 37.4689 51.587 36.9478 53.7842 35.8661L52.9008 34.0717ZM57.2582 30.2343C56.2219 31.8526 54.7776 33.1333 52.8953 34.0745L53.7897 35.8633C55.9699 34.7732 57.6974 33.2571 58.9425 31.3128L57.2582 30.2343ZM59.0236 24.5094C58.9069 26.6971 58.3125 28.5958 57.2594 30.2325L58.9413 31.3147C60.2006 29.3576 60.8875 27.1157 61.0208 24.6159L59.0236 24.5094ZM52.4284 25.5626H60.0222V23.5626H52.4284V25.5626ZM52.4596 28.3516C53.0362 27.31 53.3426 26.0518 53.4267 24.6214L51.4302 24.5039C51.3581 25.7298 51.1019 26.6746 50.7098 27.383L52.4596 28.3516ZM49.9335 30.7366C51.0247 30.2098 51.8744 29.4088 52.4596 28.3516L50.7098 27.383C50.3262 28.0759 49.7853 28.5873 49.064 28.9355L49.9335 30.7366ZM46.1003 31.4689C47.5559 31.4689 48.8438 31.244 49.9208 30.7427L49.0767 28.9295C48.3412 29.2719 47.3635 29.4689 46.1003 29.4689V31.4689ZM42.623 30.7271C43.6252 31.2377 44.7976 31.4689 46.1003 31.4689V29.4689C45.028 29.4689 44.1848 29.2782 43.5308 28.945L42.623 30.7271ZM40.1872 28.44C40.8061 29.4411 41.6176 30.2149 42.623 30.7271L43.5308 28.945C42.88 28.6135 42.3321 28.106 41.8884 27.3884L40.1872 28.44ZM38.9284 24.8322C39.1775 26.2271 39.5853 27.4369 40.1803 28.4287L41.8953 27.3997C41.4591 26.6727 41.1169 25.7107 40.8972 24.4806L38.9284 24.8322ZM38.5613 19.9923C38.5613 21.8293 38.6808 23.4457 38.9284 24.8322L40.8972 24.4806C40.6761 23.2421 40.5613 21.7491 40.5613 19.9923H38.5613ZM38.5613 17.8595V19.9923H40.5613V17.8595H38.5613ZM38.9796 12.9737C38.697 14.3697 38.5613 16.0021 38.5613 17.8595H40.5613C40.5613 16.092 40.6911 14.5993 40.9398 13.3704L38.9796 12.9737ZM40.3044 9.36495C39.6933 10.3536 39.2606 11.5683 38.9791 12.9759L40.9403 13.3681C41.19 12.1195 41.5543 11.1467 42.0056 10.4166L40.3044 9.36495ZM42.7469 7.09791C41.7532 7.59473 40.9434 8.36063 40.3113 9.3539L41.9987 10.4276C42.4603 9.70216 43.0099 9.20243 43.6413 8.88676L42.7469 7.09791ZM46.0769 6.38296C44.8586 6.38296 43.7421 6.60966 42.7536 7.09454L43.6345 8.89012C44.3023 8.5625 45.1077 8.38296 46.0769 8.38296V6.38296ZM50.1457 7.19787C49.0464 6.62928 47.6672 6.38296 46.0769 6.38296V8.38296C47.4865 8.38296 48.5136 8.60539 49.2268 8.9743L50.1457 7.19787ZM52.6053 9.74328C52.074 8.62384 51.2462 7.76711 50.1457 7.19787L49.2268 8.9743C49.9388 9.34256 50.4547 9.87646 50.7985 10.6008L52.6053 9.74328ZM53.4508 13.4766C53.3839 12.0549 53.114 10.797 52.6024 9.73727L50.8013 10.6068C51.1647 11.3595 51.3949 12.336 51.453 13.5706L53.4508 13.4766ZM60.0691 12.5236H52.4519V14.5236H60.0691V12.5236ZM57.222 7.78456C58.2451 9.47062 58.8673 11.4081 59.0734 13.6165L61.0647 13.4307C60.8334 10.9515 60.1274 8.71717 58.9318 6.74698L57.222 7.78456ZM52.9725 3.83924C54.8194 4.80596 56.2253 6.11878 57.2187 7.77919L58.935 6.75235C57.7409 4.75651 56.0531 3.19433 53.9 2.0673L52.9725 3.83924ZM46.7836 2.39403C49.2557 2.47258 51.3073 2.96759 52.9725 3.83924L53.9 2.0673C51.9086 1.02494 49.5462 0.480798 46.8471 0.395036L46.7836 2.39403ZM46.0226 0.784949L31.0471 20.2596L32.6326 21.4788L47.6081 2.00411L46.0226 0.784949Z" fill="#595EF8" mask="url(#path-1-outside-1_2332_69502)"/>
</g>
<g filter="url(#filter1_d_2332_69502)">
<mask id="path-3-outside-2_2332_69502" maskUnits="userSpaceOnUse" x="4.8125" y="0.875" width="26" height="37" fill="black">
<rect fill="white" x="4.8125" y="0.875" width="26" height="37"/>
<path fill-rule="evenodd" clip-rule="evenodd" d="M26.6719 17.6807V15.6094H13.4531V7.80469H29.0391V1.875H13.4531H10.8516H5.8125V36H10.8516H12.5849L13.4531 34.8709L17.1266 30.0938H13.4531V21.3281H23.8671L26.6719 17.6807ZM24.7476 30.0938L20.2058 36H29.0156V30.0938H24.7476Z"/>
</mask>
<path fill-rule="evenodd" clip-rule="evenodd" d="M26.6719 17.6807V15.6094H13.4531V7.80469H29.0391V1.875H13.4531H10.8516H5.8125V36H10.8516H12.5849L13.4531 34.8709L17.1266 30.0938H13.4531V21.3281H23.8671L26.6719 17.6807ZM24.7476 30.0938L20.2058 36H29.0156V30.0938H24.7476Z" fill="white"/>
<path d="M26.6719 15.6094H27.6719V14.6094H26.6719V15.6094ZM26.6719 17.6807L27.4646 18.2903L27.6719 18.0208V17.6807H26.6719ZM13.4531 15.6094H12.4531V16.6094H13.4531V15.6094ZM13.4531 7.80469V6.80469H12.4531V7.80469H13.4531ZM29.0391 7.80469V8.80469H30.0391V7.80469H29.0391ZM29.0391 1.875H30.0391V0.875H29.0391V1.875ZM5.8125 1.875V0.875H4.8125V1.875H5.8125ZM5.8125 36H4.8125V37H5.8125V36ZM12.5849 36V37H13.0774L13.3776 36.6096L12.5849 36ZM13.4531 34.8709L12.6604 34.2613L12.6604 34.2613L13.4531 34.8709ZM17.1266 30.0938L17.9193 30.7033L19.1571 29.0938H17.1266V30.0938ZM13.4531 30.0938H12.4531V31.0938H13.4531V30.0938ZM13.4531 21.3281V20.3281H12.4531V21.3281H13.4531ZM23.8671 21.3281V22.3281H24.3596L24.6599 21.9377L23.8671 21.3281ZM24.7476 30.0938V29.0938H24.2551L23.9548 29.4842L24.7476 30.0938ZM20.2058 36L19.4131 35.3904L18.1754 37H20.2058V36ZM29.0156 36V37H30.0156V36H29.0156ZM29.0156 30.0938H30.0156V29.0938H29.0156V30.0938ZM25.6719 15.6094V17.6807H27.6719V15.6094H25.6719ZM13.4531 16.6094H26.6719V14.6094H13.4531V16.6094ZM12.4531 7.80469V15.6094H14.4531V7.80469H12.4531ZM29.0391 6.80469H13.4531V8.80469H29.0391V6.80469ZM28.0391 1.875V7.80469H30.0391V1.875H28.0391ZM13.4531 2.875H29.0391V0.875H13.4531V2.875ZM10.8516 2.875H13.4531V0.875H10.8516V2.875ZM5.8125 2.875H10.8516V0.875H5.8125V2.875ZM6.8125 36V1.875H4.8125V36H6.8125ZM10.8516 35H5.8125V37H10.8516V35ZM12.5849 35H10.8516V37H12.5849V35ZM13.3776 36.6096L14.2458 35.4805L12.6604 34.2613L11.7921 35.3904L13.3776 36.6096ZM14.2458 35.4805L17.9193 30.7033L16.3339 29.4842L12.6604 34.2613L14.2458 35.4805ZM13.4531 31.0938H17.1266V29.0938H13.4531V31.0938ZM12.4531 21.3281V30.0938H14.4531V21.3281H12.4531ZM23.8671 20.3281H13.4531V22.3281H23.8671V20.3281ZM24.6599 21.9377L27.4646 18.2903L25.8792 17.0712L23.0744 20.7185L24.6599 21.9377ZM23.9548 29.4842L19.4131 35.3904L20.9985 36.6096L25.5403 30.7033L23.9548 29.4842ZM29.0156 35H20.2058V37H29.0156V35ZM28.0156 30.0938V36H30.0156V30.0938H28.0156ZM24.7476 31.0938H29.0156V29.0938H24.7476V31.0938Z" fill="#595EF8" mask="url(#path-3-outside-2_2332_69502)"/>
</g>
<defs>
<filter id="filter0_d_2332_69502" x="26.8281" y="0.378906" width="38.3398" height="45.0898" filterUnits="userSpaceOnUse" color-interpolation-filters="sRGB">
<feFlood flood-opacity="0" result="BackgroundImageFix"/>
<feColorMatrix in="SourceAlpha" type="matrix" values="0 0 0 0 0 0 0 0 0 0 0 0 0 0 0 0 0 0 127 0" result="hardAlpha"/>
<feOffset dy="4"/>
<feGaussianBlur stdDeviation="2"/>
<feComposite in2="hardAlpha" operator="out"/>
<feColorMatrix type="matrix" values="0 0 0 0 0 0 0 0 0 0 0 0 0 0 0 0 0 0 0.25 0"/>
<feBlend mode="normal" in2="BackgroundImageFix" result="effect1_dropShadow_2332_69502"/>
<feBlend mode="normal" in="SourceGraphic" in2="effect1_dropShadow_2332_69502" result="shape"/>
</filter>
<filter id="filter1_d_2332_69502" x="0.8125" y="0.875" width="33.2266" height="44.125" filterUnits="userSpaceOnUse" color-interpolation-filters="sRGB">
<feFlood flood-opacity="0" result="BackgroundImageFix"/>
<feColorMatrix in="SourceAlpha" type="matrix" values="0 0 0 0 0 0 0 0 0 0 0 0 0 0 0 0 0 0 127 0" result="hardAlpha"/>
<feOffset dy="4"/>
<feGaussianBlur stdDeviation="2"/>
<feComposite in2="hardAlpha" operator="out"/>
<feColorMatrix type="matrix" values="0 0 0 0 0 0 0 0 0 0 0 0 0 0 0 0 0 0 0.25 0"/>
<feBlend mode="normal" in2="BackgroundImageFix" result="effect1_dropShadow_2332_69502"/>
<feBlend mode="normal" in="SourceGraphic" in2="effect1_dropShadow_2332_69502" result="shape"/>
</filter>
</defs>
</svg>
